<?xml version="1.0" encoding="utf-8"?>
<svg xmlns="http://www.w3.org/2000/svg" xmlns:svg="http://www.w3.org/2000/svg" version="1.1" viewBox="0 0 1400 340">
	<title>The titlepage for the Standard Ebooks edition of Against the Grain, by J.-K. Huysmans</title>
	<g aria-label="AGAINST THE GRAIN">
		<path d="M 322.66505,68.245613 299.61008,130 h 8.15907 l 5.61403,-15.04561 H 339.2826 L 344.82178,130 h 8.23392 L 330.00073,68.245613 Z m -6.9614,39.822227 10.55439,-29.118133 h 0.1497 l 10.55439,29.118133 z"/>
		<path d="m 385.49868,96.54035 v 6.43743 h 19.16257 c 0,13.17427 -7.41052,20.88421 -18.93801,20.88421 -12.12631,0 -20.58479,-10.40468 -20.58479,-24.701757 0,-14.521637 9.28187,-24.926316 20.65965,-24.926316 9.13216,0 13.7731,3.967252 16.24327,7.036258 l 5.38948,-5.389474 c -3.51813,-3.74269 -9.88071,-8.757895 -21.85732,-8.757895 -16.76725,0 -28.51929,14.297076 -28.51929,32.037427 0,17.665497 11.30292,31.962577 28.44444,31.962577 26.12398,0 27.02222,-26.12398 27.17193,-28.66901 v -5.91345 z"/>
		<path d="M 439.57295,68.245613 416.51798,130 h 8.15906 l 5.61404,-15.04561 h 25.89941 L 461.72968,130 h 8.23391 L 446.90862,68.245613 Z m -6.9614,39.822227 10.55438,-29.118133 h 0.14971 l 10.55439,29.118133 z"/>
		<path d="M 478.71769,68.245613 V 130 h 7.48538 V 68.245613 Z"/>
		<path d="M 508.37266,81.644444 539.51184,130 h 7.48538 V 68.245613 h -7.48538 v 48.654967 h -0.14971 L 508.22295,68.245613 h -7.48538 V 130 h 7.48538 V 81.644444 Z"/>
		<path d="m 579.45161,67.122806 c -9.95556,0 -18.56375,6.587135 -18.56375,15.94386 0,6.961403 4.94036,11.826901 13.09942,16.018714 7.33567,3.81754 16.24327,6.43743 16.24327,14.52164 0,6.9614 -5.76374,10.25497 -13.32397,10.25497 -8.53334,0 -16.09357,-6.36258 -16.09357,-6.36258 l -4.11696,6.88655 c 0,0 8.53333,6.73685 20.43509,6.73685 12.05146,0 21.10877,-6.28772 21.10877,-17.74035 0,-10.47954 -8.60819,-15.120472 -16.16842,-18.563747 -7.11111,-3.293567 -13.47368,-6.437427 -13.47368,-11.826901 0,-5.464328 4.11696,-8.832749 11.52748,-8.832749 7.48538,0 13.39883,4.341521 13.39883,4.341521 l 3.21872,-6.28772 c 0,0 -6.73685,-5.090058 -17.29123,-5.090058 z"/>
		<path d="M 621.27498,75.132163 V 130 h 7.48538 V 75.132163 h 16.91696 v -6.88655 h -41.24444 v 6.88655 z"/>
		<path d="M 692.31301,75.132163 V 130 h 7.48538 V 75.132163 h 16.91696 v -6.88655 H 675.4709 v 6.88655 z"/>
		<path d="M 761.26858,102.4538 V 130 h 7.48538 V 68.245613 h -7.48538 V 95.642105 H 734.24636 V 68.245613 h -7.48538 V 130 h 7.48538 v -27.5462 z"/>
		<path d="M 783.2718,68.245613 V 130 h 33.01053 v -6.88655 H 790.75718 V 102.4538 h 24.6269 v -6.811695 h -24.6269 V 75.132163 h 25.52515 v -6.88655 z"/>
		<path d="m 880.73994,96.54035 v 6.43743 h 19.16257 c 0,13.17427 -7.41053,20.88421 -18.93801,20.88421 -12.12632,0 -20.5848,-10.40468 -20.5848,-24.701757 0,-14.521637 9.28188,-24.926316 20.65965,-24.926316 9.13217,0 13.7731,3.967252 16.24328,7.036258 l 5.38947,-5.389474 c -3.51813,-3.74269 -9.8807,-8.757895 -21.85731,-8.757895 -16.76725,0 -28.5193,14.297076 -28.5193,32.037427 0,17.665497 11.30293,31.962577 28.44445,31.962577 26.12397,0 27.02222,-26.12398 27.17193,-28.66901 v -5.91345 z"/>
		<path d="M 918.91012,68.245613 V 130 h 7.48538 v -26.04912 h 6.9614 L 950.12415,130 h 9.13216 l -17.51578,-26.64795 c 5.16491,-1.04796 14.44678,-5.389477 14.44678,-17.590647 0,-12.425731 -8.15907,-17.51579 -19.91111,-17.51579 z m 7.48538,29.567252 V 74.832748 h 7.78479 c 8.68304,0 14.59649,2.994152 14.59649,11.22807 0,8.308772 -5.91345,11.752047 -14.44678,11.752047 z"/>
		<path d="M 987.32881,68.245613 964.27384,130 h 8.15906 l 5.61404,-15.04561 h 25.89946 L 1009.4855,130 h 8.234 L 994.66448,68.245613 Z m -6.9614,39.822227 10.55438,-29.118133 h 0.14971 l 10.5544,29.118133 z"/>
		<path d="M 1026.4735,68.245613 V 130 h 7.4854 V 68.245613 Z"/>
		<path d="M 1056.1285,81.644444 1087.2677,130 h 7.4854 V 68.245613 h -7.4854 v 48.654967 h -0.1497 l -31.1392,-48.654967 h -7.4854 V 130 h 7.4854 V 81.644444 Z"/>
	</g>
	<g aria-label="J.-K. HUYSMANS">
		<path d="m 469.99002,276.07719 v -32.39298 h -5.61403 v 32.16842 c 0,4.65965 -0.78597,9.82456 -6.9614,9.82456 -5.33334,0 -8.58948,-4.3228 -8.58948,-4.3228 l -2.07719,5.16491 c 0,0 3.87368,4.32281 10.94737,4.32281 9.26315,0 12.29473,-5.67018 12.29473,-14.76492 z"/>
		<path d="m 487.5727,290.84211 c 2.58246,0 4.60351,-2.02106 4.60351,-4.60351 0,-2.58246 -2.02105,-4.60351 -4.60351,-4.60351 -2.52632,0 -4.60351,2.02105 -4.60351,4.60351 0,2.58245 2.07719,4.60351 4.60351,4.60351 z"/>
		<path d="m 505.77248,275.96491 h 18.07719 v -4.43509 h -18.07719 z"/>
		<path d="m 546.5841,266.47719 18.30176,-22.79298 h -7.01755 l -16.67368,21.38947 v -21.38947 h -5.61404 V 290 h 5.61404 V 268.55439 L 559.04726,290 h 7.24211 z"/>
		<path d="m 581.10888,290.84211 c 2.58246,0 4.60351,-2.02106 4.60351,-4.60351 0,-2.58246 -2.02105,-4.60351 -4.60351,-4.60351 -2.52631,0 -4.60351,2.02105 -4.60351,4.60351 0,2.58245 2.0772,4.60351 4.60351,4.60351 z"/>
		<path d="M 645.26611,269.34035 V 290 h 5.61404 v -46.31579 h -5.61404 v 20.54737 h -20.26666 v -20.54737 h -5.61404 V 290 h 5.61404 v -20.65965 z"/>
		<path d="m 688.89924,243.68421 v 28.2386 c 0,7.63508 -3.2,13.47368 -10.38597,13.47368 -7.2421,0 -10.4421,-5.8386 -10.4421,-13.47368 v -28.2386 h -5.61404 v 28.46316 c 0,11.45263 5.50176,18.69474 16.05614,18.69474 10.55439,0 16,-7.24211 16,-18.69474 v -28.46316 z"/>
		<path d="M 716.11611,271.30526 V 290 h 5.61404 v -18.69474 l 15.49473,-27.62105 h -6.51228 l -11.78947,22.1193 -11.84561,-22.1193 h -6.51228 z"/>
		<path d="m 757.24221,242.84211 c -7.46667,0 -13.92281,4.94035 -13.92281,11.95789 0,5.22105 3.70527,8.87018 9.82456,12.01404 5.50176,2.86315 12.18246,4.82807 12.18246,10.89122 0,5.22106 -4.32281,7.69123 -9.99298,7.69123 -6.4,0 -12.07018,-4.77193 -12.07018,-4.77193 l -3.08772,5.16491 c 0,0 6.4,5.05264 15.32632,5.05264 9.03859,0 15.83158,-4.71579 15.83158,-13.30527 0,-7.85965 -6.45614,-11.34035 -12.12632,-13.9228 -5.33333,-2.47018 -10.10526,-4.82807 -10.10526,-8.87018 0,-4.09825 3.08772,-6.62456 8.64561,-6.62456 5.61404,0 10.04913,3.25614 10.04913,3.25614 l 2.41403,-4.71579 c 0,0 -5.05263,-3.81754 -12.96842,-3.81754 z"/>
		<path d="m 820.82292,243.68421 h -5.72631 l -14.14737,36.82807 -0.33684,1.23509 -0.33684,-1.23509 -14.14737,-36.82807 h -5.72632 V 290 h 5.61404 v -33.29123 l 0.44912,2.13334 L 798.53521,290 h 4.15438 l 12.07018,-31.15789 0.44912,-2.13334 V 290 h 5.61403 z"/>
		<path d="M 845.32115,243.68421 828.02992,290 h 6.1193 l 4.21053,-11.28421 h 19.42456 L 861.93869,290 h 6.17544 l -17.29122,-46.31579 z m -5.22105,29.86667 7.91579,-21.8386 h 0.11228 l 7.91579,21.8386 z"/>
		<path d="M 881.26305,253.73333 904.61743,290 h 5.61404 v -46.31579 h -5.61404 v 36.49123 h -0.11228 l -23.35438,-36.49123 h -5.61404 V 290 h 5.61404 v -36.26667 z"/>
		<path d="m 935.82226,242.84211 c -7.46667,0 -13.92281,4.94035 -13.92281,11.95789 0,5.22105 3.70526,8.87018 9.82456,12.01404 5.50176,2.86315 12.18246,4.82807 12.18246,10.89122 0,5.22106 -4.32281,7.69123 -9.99298,7.69123 -6.4,0 -12.07018,-4.77193 -12.07018,-4.77193 l -3.08772,5.16491 c 0,0 6.4,5.05264 15.32632,5.05264 9.03859,0 15.83157,-4.71579 15.83157,-13.30527 0,-7.85965 -6.45614,-11.34035 -12.12631,-13.9228 -5.33333,-2.47018 -10.10526,-4.82807 -10.10526,-8.87018 0,-4.09825 3.08772,-6.62456 8.64561,-6.62456 5.61404,0 10.04912,3.25614 10.04912,3.25614 l 2.41404,-4.71579 c 0,0 -5.05263,-3.81754 -12.96842,-3.81754 z"/>
	</g>
</svg>
